<?xml version="1.0" encoding="UTF-8" standalone="no"?>
<!-- Generator: Adobe Illustrator 16.0.0, SVG Export Plug-In . SVG Version: 6.00 Build 0)  -->

<svg
   xmlns:dc="http://purl.org/dc/elements/1.1/"
   xmlns:cc="http://creativecommons.org/ns#"
   xmlns:rdf="http://www.w3.org/1999/02/22-rdf-syntax-ns#"
   xmlns:svg="http://www.w3.org/2000/svg"
   xmlns="http://www.w3.org/2000/svg"
   xmlns:sodipodi="http://sodipodi.sourceforge.net/DTD/sodipodi-0.dtd"
   xmlns:inkscape="http://www.inkscape.org/namespaces/inkscape"
   version="1.1"
   id="Layer_1"
   x="0px"
   y="0px"
   width="512px"
   height="512px"
   viewBox="0 0 512 512"
   enable-background="new 0 0 512 512"
   xml:space="preserve"
   inkscape:version="0.91 r13725"
   sodipodi:docname="arrow.svg"><metadata
     id="metadata4194"><rdf:RDF><cc:Work
         rdf:about=""><dc:format>image/svg+xml</dc:format><dc:type
           rdf:resource="http://purl.org/dc/dcmitype/StillImage" /></cc:Work></rdf:RDF></metadata><defs
     id="defs4192" /><sodipodi:namedview
     pagecolor="#ffffff"
     bordercolor="#666666"
     borderopacity="1"
     objecttolerance="10"
     gridtolerance="10"
     guidetolerance="10"
     inkscape:pageopacity="0"
     inkscape:pageshadow="2"
     inkscape:window-width="1682"
     inkscape:window-height="928"
     id="namedview4190"
     showgrid="false"
     inkscape:zoom="1.84375"
     inkscape:cx="299.56957"
     inkscape:cy="293.69977"
     inkscape:window-x="0"
     inkscape:window-y="0"
     inkscape:window-maximized="0"
     inkscape:current-layer="Layer_1" /><path
     d="m 213.33084,137.5516 c -20.179,-20.181 -19.913,-53.165005 0.595,-73.673005 l 0,0 c 20.508,-20.508 53.493,-20.773 73.672,-0.594 l 190,189.999005 c 20.178,20.178 19.913,53.164 -0.595,73.672 l 0,0 c -20.509,20.508 -53.492,20.772 -73.671,0.595 l -190.001,-189.999 z"
     id="path4186"
     style="fill:#62addd;fill-opacity:1"
     inkscape:connector-curvature="0" /><path
     d="m 21.386738,255.45133 c -20.1789991,20.18 -19.9129991,53.164 0.595,73.672 l 0,0 c 20.508,20.509 53.493,20.774 73.672002,0.596 l 189.99999,-190 c 20.178,-20.178 19.913,-53.163993 -0.595,-73.670993 l 0,0 c -20.509,-20.508 -53.492,-20.772 -73.671,-0.595 L 21.386738,255.45133 Z"
     id="path4188"
     style="fill:#62addd;fill-opacity:1"
     inkscape:connector-curvature="0" /></svg>